<?xml version="1.0" encoding="iso-8859-1"?>
<!-- Generator: Adobe Illustrator 19.0.0, SVG Export Plug-In . SVG Version: 6.00 Build 0)  -->
<svg version="1.1" id="Capa_1" xmlns="http://www.w3.org/2000/svg" xmlns:xlink="http://www.w3.org/1999/xlink" x="0px" y="0px"
	 viewBox="0 0 512 512" style="enable-background:new 0 0 512 512;" xml:space="preserve">
<g>
	<circle style="fill:#EF2E2E;" cx="189.96" cy="497" r="15"/>
	<circle style="fill:#EF2E2E;" cx="189.96" cy="436" r="15"/>
	<circle style="fill:#EF2E2E;" cx="189.96" cy="376" r="15"/>
	<circle style="fill:#EF2E2E;" cx="189.96" cy="316" r="15"/>
</g>
<g>
	<path style="fill:#17ACE8;" d="M504.958,256c0,140.7-114.3,256-255,256c-8.401,0-15-6.601-15-15c0-8.401,6.599-15,15-15
		c124.2,0,225-101.8,225-226s-100.8-226-225-226c-97.2,0-183.3,63.1-213.6,155.2c-2.701,8.099-11.1,12.299-18.9,9.598
		c-8.101-2.399-12.299-11.1-9.6-18.9C42.359,71.199,139.558,0,249.958,0C390.658,0,504.958,115.3,504.958,256z"/>
	<path style="fill:#17ACE8;" d="M444.958,256c0,107.399-87.599,195-195,195c-8.401,0-15-6.601-15-15c0-8.401,6.599-15,15-15
		c90.901,0,165-74.101,165-165c0-90.901-74.099-165-165-165c-71.1,0-134.099,45.3-156.599,112.8
		c-2.701,7.798-11.102,12.299-18.9,9.598c-7.8-2.699-12.001-11.1-9.6-19.199C91.557,114.699,165.959,61,249.958,61
		C357.359,61,444.958,148.599,444.958,256z"/>
	<path style="fill:#17ACE8;" d="M384.958,256c0,74.399-60.601,135-135,135c-8.401,0-15-6.601-15-15c0-8.401,6.599-15,15-15
		c57.9,0,105-47.1,105-105s-47.1-105-105-105c-45.3,0-85.201,28.799-99.6,71.7c-2.699,7.798-11.1,12.299-18.9,9.598
		c-8.099-2.699-12.299-11.1-9.6-18.9C140.457,158.2,191.758,121,249.958,121C324.358,121,384.958,181.599,384.958,256z"/>
	<path style="fill:#17ACE8;" d="M324.958,256c0,41.4-33.6,75-75,75c-8.401,0-15-6.601-15-15c0-8.401,6.599-15,15-15
		c24.9,0,45-20.101,45-45c0-24.901-20.099-45-45-45c-19.501,0-36.599,12.299-42.599,30.899c-2.701,7.8-11.1,12.001-19.2,9.3
		c-7.8-2.699-12.001-11.1-9.3-18.9C189.057,201.7,217.558,181,249.958,181C291.358,181,324.958,214.6,324.958,256z"/>
</g>
<g>
	<path style="fill:#1689FC;" d="M384.958,256c0,74.399-60.601,135-135,135v-30c57.9,0,105-47.1,105-105s-47.1-105-105-105v-30
		C324.358,121,384.958,181.599,384.958,256z"/>
	<path style="fill:#1689FC;" d="M444.958,256c0,107.399-87.599,195-195,195v-30c90.901,0,165-74.101,165-165
		c0-90.901-74.099-165-165-165V61C357.359,61,444.958,148.599,444.958,256z"/>
	<path style="fill:#1689FC;" d="M504.958,256c0,140.7-114.3,256-255,256v-30c124.2,0,225-101.8,225-226s-100.8-226-225-226V0
		C390.658,0,504.958,115.3,504.958,256z"/>
	<path style="fill:#1689FC;" d="M324.958,256c0,41.4-33.6,75-75,75v-30c24.9,0,45-20.101,45-45c0-24.901-20.099-45-45-45v-30
		C291.358,181,324.958,214.6,324.958,256z"/>
</g>
<g>
</g>
<g>
</g>
<g>
</g>
<g>
</g>
<g>
</g>
<g>
</g>
<g>
</g>
<g>
</g>
<g>
</g>
<g>
</g>
<g>
</g>
<g>
</g>
<g>
</g>
<g>
</g>
<g>
</g>
</svg>
